# xmcd
#
# Track frame offsets:
#	150
#	12449
#	26274
#	42221
#	55689
#	71670
#	88497
#	102985
#	118979
#	136552
#	152351
#	165105
#	179294
#	194486
#	209890
#	225783
#	240492
#	252300
#	265851
#	281686
#
# Disc length: 3920 seconds
#
# Revision: 0
# Processed by: cddbd v1.5.2PL0 Copyright (c) Steve Scherf et al.
# Submitted via: EasyCDDAExtractor 12.0.0.1
#
DISCID=0c0f4e14
DTITLE=Various Artist - Kids top 20
DYEAR=2008
DGENRE=Pop
TTITLE0=Jonas Brothers - Hold On
TTITLE1=Amy Macdonald - This is the life
TTITLE2=Regi and Tom Helsen - Night and day
TTITLE3=Lasgo - Out of my mind
TTITLE4=Good Shape - Take my love
TTITLE5=Natalia - I survived you
TTITLE6=Nelson - When I can't find love
TTITLE7=Dima Bilan - Believe
TTITLE8=Wim Soutaer ft. Willy S. - Heel de zomer lang
TTITLE9=Christoff - Zeven zonden
TTITLE10=Snuffie Bunny - Snuffie song
TTITLE11=Katerine - Shut your mouth
TTITLE12=Belle Perez - Dime que tu quieres
TTITLE13=Yves Larock - By your side
TTITLE14=Mika - Happy ending
TTITLE15=Colbie Caillat - Bubbly
TTITLE16=Eric Prydz - Pjanoo
TTITLE17=Brahim - What I like about you
TTITLE18=Dean - We don't belong
TTITLE19=Oliver - Shut up
EXTD=
EXTT0=
EXTT1=
EXTT2=
EXTT3=
EXTT4=
EXTT5=
EXTT6=
EXTT7=
EXTT8=
EXTT9=
EXTT10=
EXTT11=
EXTT12=
EXTT13=
EXTT14=
EXTT15=
EXTT16=
EXTT17=
EXTT18=
EXTT19=
PLAYORDER=
